<?xml version="1.0" standalone="no"?>
<!DOCTYPE svg PUBLIC "-//W3C//DTD SVG 20010904//EN" "http://www.w3.org/TR/2001/REC-SVG-20010904/DTD/svg10.dtd">
<svg xmlns="http://www.w3.org/2000/svg" version="1.0" width="544.000000pt" height="527.000000pt" viewBox="0 0 544.000000 527.000000" preserveAspectRatio="xMidYMid meet">
<metadata>
Created by potrace 1.16, written by Peter Selinger 2001-2019
<meta name="Producer" content="Online-Convert"/></metadata>
<g transform="translate(0.000000,527.000000) scale(0.100000,-0.100000)" fill="#000000" stroke="none">
<path d="M0 2635 l0 -2635 2720 0 2720 0 0 2635 0 2635 -2720 0 -2720 0 0 -2635z m2953 2435 l-6 25 21 -23 c11 -12 26 -21 33 -20 8 2 13 -3 12 -9 -2 -7 1 -13 6 -13 5 0 11 6 14 13 2 6 8 9 11 5 9 -7 -12 -191 -25 -226 -5 -13 -13 -21 -17 -18 -14 8 -35 -11 -29 -26 3 -10 27 -17 64 -22 32 -3 67 -7 78 -9 34 -4 30 30 -4 38 -25 5 -30 11 -26 28 2 12 10 55 16 96 12 68 15 74 46 89 25 12 38 13 57 4 25 -11 46 0 46 24 0 6 9 14 20 17 11 3 20 1 20 -4 0 -5 -4 -9 -10 -9 -13 0 -13 -27 0 -35 6 -3 7 1 4 9 -3 9 -1 16 5 16 6 0 11 -7 11 -16 0 -10 6 -14 15 -10 20 7 19 -1 -11 -132 -24 -98 -30 -113 -45 -109 -23 6 -49 -20 -28 -28 116 -40 149 -44 149 -20 0 8 -3 15 -7 15 -5 0 -14 4 -21 9 -11 7 -8 28 16 112 33 114 50 161 51 142 1 -7 5 -13 11 -13 5 0 6 7 3 17 -4 11 -3 14 5 9 7 -4 12 -17 12 -29 0 -20 1 -20 13 -3 13 18 15 17 40 -8 15 -15 27 -31 27 -35 0 -5 -18 -55 -39 -112 -37 -99 -41 -104 -66 -101 -49 6 -23 -28 45 -58 47 -21 67 -25 72 -17 4 7 -1 20 -11 30 -18 18 -17 21 15 100 40 95 49 106 94 112 69 9 75 -27 27 -155 -29 -76 -35 -85 -59 -88 -47 -6 -31 -29 39 -56 48 -19 70 -23 78 -15 7 8 4 15 -11 26 l-22 14 34 87 c19 48 39 95 44 104 6 10 11 30 11 45 2 24 2 25 6 6 5 -25 28 -31 36 -10 3 6 6 0 6 -15 1 -16 6 -28 12 -28 6 0 8 12 5 33 -5 24 -4 27 3 12 5 -11 10 -30 10 -42 1 -12 7 -23 14 -26 8 -3 -3 -35 -37 -105 -28 -57 -49 -114 -49 -133 0 -37 32 -69 69 -69 13 0 27 -1 31 -2 4 -2 9 4 11 13 2 11 -6 19 -22 23 -18 4 -26 13 -26 27 0 18 44 107 84 172 12 18 46 24 46 7 0 -5 14 -10 30 -10 17 0 30 5 30 10 0 18 18 10 23 -10 3 -13 14 -20 29 -20 14 0 35 -11 47 -24 13 -14 28 -23 35 -20 6 2 20 -2 31 -10 11 -9 14 -16 8 -16 -7 0 -13 -8 -13 -17 0 -13 3 -14 12 -5 7 7 17 12 22 12 6 0 5 -5 -2 -12 -15 -15 -16 -48 -2 -48 18 0 10 -15 -55 -104 -72 -98 -84 -126 -65 -161 13 -23 78 -57 93 -48 15 9 6 30 -18 41 -14 6 -25 18 -25 25 0 11 50 79 114 154 20 22 38 21 69 -5 16 -14 19 -14 34 1 11 11 13 21 7 29 -5 8 -2 6 7 -3 11 -12 20 -14 33 -7 10 5 20 7 23 4 3 -3 -5 -9 -17 -14 -14 -5 -19 -11 -13 -15 6 -4 9 -16 6 -27 -3 -11 0 -26 6 -34 17 -20 -151 -197 -170 -178 -7 6 -19 12 -26 12 -25 0 -12 -25 42 -85 42 -46 57 -57 67 -47 9 9 8 16 -5 30 -9 10 -17 23 -17 29 0 18 132 128 156 130 15 1 35 -10 54 -29 27 -27 34 -29 56 -20 13 7 24 19 24 27 0 14 2 15 14 2 14 -14 19 -31 17 -54 0 -7 -14 -19 -31 -28 -59 -30 -29 -87 41 -78 41 6 58 -4 59 -34 0 -14 -55 -73 -67 -73 -5 0 -14 9 -21 20 -19 30 -88 70 -123 70 -37 0 -89 -47 -89 -82 0 -36 34 -83 71 -98 44 -17 44 -17 31 -33 -9 -10 -6 -22 14 -48 31 -42 50 -44 47 -4 -2 26 7 36 70 83 113 83 118 88 124 132 3 22 10 37 14 34 5 -3 6 -17 3 -32 -4 -21 -3 -24 5 -12 7 10 11 11 11 3 0 -7 6 -13 13 -13 8 0 14 -6 14 -13 0 -18 33 -67 47 -68 6 0 2 -4 -9 -9 -18 -8 -19 -9 -1 -9 12 -1 16 -6 12 -17 -3 -8 -2 -12 4 -9 5 3 15 -5 22 -19 6 -14 15 -26 20 -26 4 0 8 -7 8 -15 0 -8 5 -15 10 -15 6 0 9 -12 9 -27 -2 -25 -2 -25 -6 -5 -7 35 -66 89 -107 96 -104 20 -226 -76 -226 -176 0 -46 29 -98 69 -126 55 -36 64 -11 13 36 -25 23 -42 48 -42 61 0 81 180 169 234 115 21 -20 20 -26 -5 -58 -22 -27 -19 -55 7 -76 22 -19 53 14 61 63 l6 40 24 -27 c12 -15 23 -35 23 -44 0 -9 9 -30 19 -46 20 -30 20 -30 -3 -41 -34 -18 -254 -105 -264 -105 -6 0 -12 7 -16 15 -7 20 -26 19 -26 -1 0 -35 43 -134 58 -134 10 0 13 7 9 25 -4 22 1 28 31 41 86 36 87 35 46 -45 -36 -70 -48 -83 -57 -58 -3 8 -8 9 -15 2 -15 -14 30 -140 49 -140 8 0 13 6 11 14 -4 19 14 62 57 136 19 33 36 62 37 63 7 10 128 -65 137 -85 12 -26 20 -29 36 -9 8 10 7 22 -4 49 -13 31 -13 36 1 41 13 5 15 1 10 -20 -5 -17 -3 -23 4 -19 13 8 26 -26 34 -97 4 -34 12 -58 19 -58 7 0 6 -5 -3 -11 -11 -8 -12 -12 -2 -16 6 -2 12 -14 12 -26 0 -21 -1 -21 -25 6 -43 45 -82 60 -145 54 -70 -6 -135 -38 -155 -77 -31 -59 -15 -150 34 -194 26 -24 40 -13 21 17 -31 49 -42 79 -36 102 7 29 57 66 93 68 26 2 28 -1 48 -88 l21 -90 32 1 c62 3 125 72 115 126 -3 14 0 29 7 33 9 5 10 1 6 -13 -4 -12 -1 -32 6 -44 7 -13 11 -27 9 -33 -18 -56 -19 -64 -5 -58 11 4 14 -6 14 -45 0 -27 3 -65 7 -83 l7 -34 7 35 6 35 2 -32 c0 -17 -3 -35 -9 -38 -6 -3 -10 -25 -11 -48 0 -34 -2 -38 -9 -20 -5 12 -17 27 -27 33 -15 10 -15 11 -1 6 22 -7 31 22 22 71 -10 58 -22 77 -40 62 -8 -6 -14 -19 -14 -29 0 -20 -26 -26 -163 -36 -84 -7 -87 -6 -87 15 0 13 -6 21 -16 21 -14 0 -16 -8 -10 -52 3 -29 6 -70 6 -90 0 -27 4 -38 15 -38 10 0 15 10 15 29 0 17 3 32 8 34 4 3 48 8 99 11 91 7 92 7 108 -18 10 -14 19 -41 20 -59 2 -17 3 -35 4 -38 2 -12 61 -8 62 4 0 7 4 2 9 -11 11 -27 -6 -326 -20 -357 -5 -11 -11 -36 -13 -55 -11 -75 -59 -272 -77 -316 -11 -25 -20 -52 -20 -60 0 -8 -4 -14 -9 -14 -5 0 -11 -17 -15 -37 -5 -33 -28 -83 -148 -318 -11 -22 -24 -42 -28 -45 -4 -3 -15 -22 -25 -42 -9 -21 -21 -38 -26 -38 -5 0 -9 -6 -9 -13 0 -8 -9 -22 -20 -32 -11 -10 -20 -21 -20 -26 0 -16 -54 -89 -67 -89 -7 0 -13 -6 -13 -14 0 -8 -15 -30 -32 -49 -52 -56 -73 -80 -91 -109 -9 -14 -26 -29 -37 -33 -11 -4 -27 -20 -36 -36 -8 -16 -26 -35 -39 -41 -14 -6 -34 -26 -45 -45 -10 -18 -26 -33 -33 -33 -14 0 -40 -19 -109 -83 -22 -20 -44 -37 -48 -37 -5 0 -10 -4 -12 -8 -1 -4 -20 -18 -40 -31 -21 -12 -38 -27 -38 -32 0 -5 -8 -9 -18 -9 -9 0 -28 -10 -42 -23 -14 -13 -32 -26 -40 -30 -21 -10 -52 -30 -68 -44 -7 -7 -32 -18 -55 -24 -23 -7 -49 -18 -58 -26 -8 -7 -21 -13 -27 -13 -7 0 -12 -4 -12 -9 0 -10 -44 -29 -84 -37 -16 -2 -43 -16 -60 -29 -18 -13 -59 -31 -91 -39 -33 -7 -73 -19 -88 -25 -15 -6 -31 -10 -35 -9 -4 1 -24 -6 -45 -15 -41 -18 -253 -64 -332 -72 -11 -1 -57 -7 -102 -14 -167 -24 -586 -13 -713 19 -19 5 -75 16 -125 25 -83 16 -181 43 -230 65 -11 5 -51 16 -89 25 -39 9 -84 27 -102 40 -17 13 -44 27 -60 29 -40 8 -84 27 -84 37 0 5 -5 9 -12 9 -6 0 -19 6 -27 13 -9 8 -35 19 -58 26 -23 6 -48 17 -55 24 -7 7 -20 16 -28 20 -24 11 -52 30 -79 55 -14 12 -34 22 -43 22 -10 0 -18 4 -18 9 0 5 -17 20 -37 32 -21 13 -39 27 -41 31 -2 4 -7 8 -12 8 -4 0 -27 18 -51 40 -68 62 -78 70 -103 81 -13 6 -30 22 -37 36 -7 14 -26 31 -41 39 -15 8 -35 28 -43 44 -9 17 -19 30 -23 30 -11 0 -39 28 -77 75 -16 21 -45 54 -62 74 -18 20 -33 42 -33 49 0 6 -6 12 -13 12 -13 0 -67 73 -67 89 0 5 -9 16 -20 26 -11 10 -20 24 -20 32 0 7 -4 13 -9 13 -5 0 -17 18 -27 40 -10 22 -21 40 -25 40 -3 0 -12 15 -19 33 -8 17 -25 50 -40 72 -14 22 -36 65 -49 95 -13 30 -34 78 -47 106 -13 28 -24 60 -24 72 0 11 -4 22 -8 24 -19 7 -94 279 -109 393 -3 22 -9 45 -13 50 -8 9 -18 150 -24 310 l-2 60 51 -25 c64 -32 170 -35 228 -6 85 42 128 112 129 211 0 59 -29 146 -54 161 -24 15 -29 -15 -9 -54 26 -50 28 -132 5 -171 -9 -15 -32 -38 -52 -51 -30 -21 -46 -25 -111 -24 -72 1 -96 7 -148 38 -28 16 -63 60 -62 78 0 7 4 3 9 -9 5 -12 19 -27 32 -34 23 -12 23 -12 4 10 -15 16 -20 38 -21 91 -1 39 0 70 2 70 2 0 8 -10 13 -22 9 -20 10 -19 7 10 -3 31 9 40 47 33 11 -2 26 19 26 37 0 7 -8 16 -17 19 -34 13 -45 32 -37 61 4 15 8 36 9 47 1 11 6 36 13 55 6 19 16 64 21 99 6 35 17 71 26 81 8 9 12 19 9 22 -3 3 4 25 16 48 12 23 19 47 17 53 -3 11 13 52 44 110 6 10 19 36 31 58 11 21 24 42 29 45 5 3 9 14 9 24 0 32 19 33 73 4 29 -15 62 -32 74 -38 13 -6 23 -14 23 -18 0 -5 4 -8 9 -8 4 0 45 -21 89 -46 80 -45 108 -49 97 -14 -4 11 3 23 20 34 40 26 58 71 53 137 -5 73 -38 118 -113 155 -59 28 -119 30 -151 3 -26 -21 -48 -72 -45 -106 2 -38 -6 -41 -42 -13 -14 11 -30 20 -35 20 -5 0 -12 9 -15 20 -3 11 -1 20 4 20 5 0 9 -7 9 -15 0 -26 19 -16 26 13 6 23 44 82 84 129 5 7 10 19 10 28 0 8 4 15 9 15 5 0 11 9 14 20 3 11 12 20 20 20 8 0 18 8 22 18 7 16 8 15 15 -3 7 -15 9 -11 9 20 1 30 4 36 11 25 8 -13 10 -12 10 4 0 23 28 56 47 56 10 0 12 6 8 21 -6 17 -4 20 12 15 15 -5 19 -2 19 15 -1 12 8 26 19 33 11 6 26 20 35 31 30 41 60 66 72 59 8 -5 9 -2 5 10 -4 9 -3 14 2 11 5 -3 12 -1 15 4 4 5 -2 12 -11 14 -14 4 -13 5 4 6 12 0 25 6 28 11 3 6 11 10 16 10 6 0 -4 -18 -21 -40 -31 -40 -37 -78 -9 -71 8 2 21 5 29 8 9 2 44 -30 93 -88 62 -72 75 -94 66 -105 -6 -7 -8 -21 -5 -30 5 -12 18 -5 61 37 64 61 76 97 23 68 -22 -12 -27 -8 -88 71 -19 25 -40 51 -47 58 -18 19 -16 72 4 94 35 38 57 25 178 -110 26 -29 28 -35 16 -54 -9 -14 -10 -23 -2 -31 7 -7 25 3 58 36 26 26 51 47 55 47 4 0 8 7 8 16 0 13 -7 15 -32 10 -32 -5 -36 -2 -105 83 -82 101 -112 118 -162 93 -36 -17 -61 -57 -61 -98 0 -26 -1 -26 -19 -10 -10 9 -18 28 -17 42 1 26 11 32 19 12 3 -8 8 -6 12 7 8 20 39 55 50 55 9 0 89 54 97 65 4 5 8 6 8 2 0 -4 6 -2 14 5 8 7 11 18 8 23 -3 6 -2 7 3 3 5 -5 22 2 39 15 43 32 124 78 132 75 3 -2 11 8 18 21 11 19 14 21 19 7 4 -9 2 -16 -3 -16 -13 0 -13 -47 -1 -55 5 -3 12 -1 16 5 12 20 24 8 72 -72 62 -107 63 -109 46 -135 -25 -38 4 -36 77 8 88 52 95 91 9 55 -12 -5 -27 15 -65 88 l-49 94 28 26 c26 24 36 59 19 70 -5 3 -23 -4 -40 -15 -41 -24 -47 -24 -22 1 11 11 27 20 35 20 8 0 23 8 33 18 10 10 24 16 31 14 7 -2 19 4 27 14 8 11 14 15 13 9 -4 -28 3 -27 22 4 11 18 23 30 27 27 3 -4 2 -10 -4 -14 -6 -4 -17 -24 -24 -46 -24 -75 9 -182 73 -230 69 -53 188 -21 217 58 29 82 0 189 -68 247 -30 25 -33 30 -14 26 12 -3 20 -1 17 3 -3 5 11 13 31 19 20 5 42 18 50 28 13 16 14 15 8 -12 l-6 -30 22 33 c27 40 38 36 16 -7 -24 -45 -20 -127 8 -188 27 -57 56 -81 109 -90 49 -8 81 2 121 38 68 59 68 189 0 270 -19 23 -32 44 -28 48 3 3 14 -5 25 -18 10 -13 19 -19 19 -14 0 5 7 18 16 29 15 18 15 18 9 -3 -4 -14 -2 -23 4 -23 6 0 11 10 12 23 l0 22 9 -22 c8 -21 20 -27 42 -24 10 1 16 -24 23 -99 9 -85 22 -136 41 -155 31 -31 124 -8 124 31 0 11 -9 13 -39 8 -46 -7 -45 -9 -61 120 -7 53 -7 93 -2 98 5 5 26 10 46 11 24 1 35 6 31 14 -6 16 12 27 18 11 4 -10 7 -10 15 0 7 11 12 11 24 -2 9 -8 19 -12 22 -9 4 4 5 -85 4 -198 l-3 -204 -23 -3 c-13 -2 -21 -9 -19 -15 5 -15 156 -17 160 -2 1 6 -10 11 -25 13 -28 3 -28 4 -28 73 0 66 1 69 19 59 11 -5 40 -10 65 -10 39 0 52 6 86 36 22 20 45 52 51 73 12 40 8 164 -6 196 -6 15 -3 14 13 -5 l21 -25 -6 25z m-113 -20 c26 -26 33 -59 28 -126 -8 -99 -70 -142 -132 -93 -28 22 -28 22 -21 108 7 92 24 126 57 115 10 -3 18 -1 18 5 0 18 28 13 50 -9z m-614 -69 c54 -53 72 -166 33 -215 -38 -48 -104 -27 -130 42 -23 60 -31 120 -18 144 34 66 69 74 115 29z m-336 -118 c36 -33 74 -134 65 -172 -16 -65 -76 -81 -124 -33 -27 26 -71 126 -71 158 0 9 9 29 21 45 27 38 68 39 109 2z m-1118 -1017 c92 -39 128 -124 72 -173 -33 -30 -43 -29 -106 10 -96 58 -102 64 -102 101 0 68 58 94 136 62z"/>
<path d="M898 4230 c-68 -12 -108 -67 -108 -150 0 -58 15 -93 57 -131 87 -81 188 -76 244 13 30 49 23 143 -15 192 -48 64 -106 88 -178 76z m55 -74 c127 -56 161 -206 47 -206 -42 0 -104 40 -137 87 -63 90 -8 162 90 119z"/>
<path d="M3346 4181 c-3 -4 -18 -83 -35 -176 -17 -94 -53 -294 -82 -445 -76 -411 -75 -408 -53 -430 12 -12 84 -35 189 -61 94 -24 171 -44 173 -45 4 -2 -24 -151 -35 -187 -3 -12 -11 -16 -20 -12 -21 8 -60 -19 -68 -47 -26 -91 -37 -107 -82 -124 -41 -16 -48 -16 -96 -1 -58 18 -124 75 -133 114 -4 14 -4 59 -1 100 4 49 1 93 -9 129 -8 30 -14 72 -14 92 0 56 -27 169 -52 221 -27 57 -106 142 -162 175 -91 53 -222 69 -331 41 -164 -43 -278 -162 -338 -353 -17 -58 -21 -94 -21 -257 -1 -124 -5 -197 -13 -210 -13 -24 -100 -106 -198 -188 -90 -76 -163 -161 -229 -267 -119 -192 -201 -422 -166 -465 30 -36 131 -7 250 71 69 45 83 56 174 143 48 46 57 52 52 31 -4 -14 -16 -70 -27 -125 -27 -133 -23 -357 8 -452 15 -44 17 -65 10 -72 -14 -14 -68 -14 -103 -1 -35 14 -39 8 -26 -38 25 -83 121 -159 231 -183 44 -9 49 -13 55 -42 4 -19 2 -33 -4 -35 -5 -2 -10 -10 -10 -18 0 -19 -30 -30 -109 -43 -61 -10 -65 -9 -93 14 -33 28 -39 30 -55 14 -8 -8 -13 -5 -18 12 -12 40 -64 116 -92 134 l-26 17 8 -38 7 -39 -26 24 c-42 39 -43 16 -3 -65 43 -87 46 -104 15 -96 -14 3 -19 2 -14 -6 4 -7 16 -12 27 -12 26 0 24 31 -6 104 -13 32 -19 54 -12 47 18 -18 27 -13 27 14 0 50 35 5 97 -123 0 -2 11 3 23 10 18 11 23 11 35 -6 14 -18 12 -21 -23 -36 -21 -10 -49 -31 -64 -48 -23 -28 -33 -31 -124 -42 -135 -17 -157 -39 -49 -48 49 -4 55 -7 50 -23 -4 -12 -1 -21 10 -25 21 -8 32 3 17 18 -7 7 -12 16 -12 20 0 12 48 10 52 -2 4 -12 104 -30 166 -30 36 0 42 -3 42 -21 0 -19 4 -20 43 -13 23 4 51 7 62 6 102 -9 209 -1 298 22 86 23 117 26 271 26 143 0 190 -4 258 -21 62 -15 123 -21 241 -24 149 -3 157 -2 157 16 0 13 7 19 23 19 65 1 222 21 231 30 16 16 -6 31 -54 37 -31 4 -44 12 -52 29 -20 43 -120 93 -218 109 -88 14 -100 18 -100 32 0 8 -7 21 -15 30 -12 11 -13 18 -5 29 7 7 10 26 9 41 -2 19 8 44 29 76 44 63 87 158 109 237 14 50 18 101 17 220 0 170 -15 261 -73 441 -17 53 -31 98 -31 101 0 4 133 -2 138 -7 2 -2 -9 -64 -24 -139 -21 -106 -24 -139 -15 -150 13 -15 108 -42 118 -32 3 3 22 89 43 192 l37 187 36 26 c43 31 116 126 123 161 3 14 9 41 14 61 13 49 13 191 -1 226 -6 15 -19 38 -31 50 -19 20 -19 26 -8 97 10 58 17 76 29 76 9 0 94 -20 189 -45 96 -25 179 -45 185 -45 8 0 24 71 45 193 39 221 67 383 117 656 l34 193 -20 26 c-17 22 -42 31 -167 59 -80 18 -153 35 -160 38 -10 3 -13 16 -10 40 6 50 -25 77 -95 83 l-54 4 -7 -41 c-3 -22 -11 -41 -16 -41 -5 0 -78 16 -162 36 -84 20 -168 40 -186 44 -17 4 -34 5 -36 1z m386 -103 c356 -85 371 -91 336 -126 -9 -9 -9 -12 0 -12 6 0 17 11 24 24 13 23 14 23 61 9 32 -9 47 -19 47 -31 0 -13 -2 -14 -9 -4 -5 9 -8 -7 -8 -40 0 -76 -53 -361 -70 -374 -10 -9 -11 -13 -2 -16 13 -4 -8 -158 -22 -158 -5 0 -6 -6 -3 -14 5 -12 -30 -218 -57 -337 l-10 -46 -72 18 c-211 51 -513 131 -522 139 -5 4 -21 8 -35 8 -23 0 -82 15 -167 40 -17 6 -34 8 -37 4 -10 -10 -6 31 14 148 25 139 33 162 57 154 16 -5 16 -4 -1 10 -21 17 -20 38 11 199 13 72 20 87 35 87 10 0 18 5 18 10 0 6 -7 10 -15 10 -8 0 -15 7 -15 15 0 8 5 15 10 15 6 0 10 -3 10 -7 0 -5 11 -9 25 -9 14 -1 22 2 19 7 -3 5 -12 9 -20 9 -8 0 -14 5 -14 11 0 5 -4 7 -10 4 -14 -9 -13 3 17 178 21 122 31 157 43 157 8 0 171 -37 362 -82z m-977 -577 c13 -5 -11 -10 -67 -13 -109 -7 -180 -38 -259 -113 -60 -57 -99 -71 -99 -35 0 22 67 93 80 85 5 -3 12 1 17 8 13 22 62 50 111 63 52 14 186 17 217 5z m220 -225 c33 -35 55 -97 55 -158 0 -18 12 -55 25 -83 36 -73 34 -146 -5 -208 -34 -54 -97 -103 -151 -117 -43 -12 -61 -30 -29 -30 31 0 99 -38 132 -73 45 -49 83 -132 123 -268 20 -68 47 -160 61 -204 44 -151 57 -255 51 -430 -5 -183 -19 -249 -79 -374 -41 -86 -106 -166 -162 -200 -43 -26 -108 -35 -152 -21 l-36 12 49 22 c26 13 54 30 62 39 10 13 -1 11 -42 -8 -65 -30 -238 -65 -317 -65 -30 1 -71 7 -90 14 -78 30 -77 29 -51 6 14 -12 37 -24 53 -27 35 -7 37 -23 3 -24 -79 -4 -92 -1 -129 32 -42 36 -94 121 -124 199 -43 114 -56 190 -56 325 0 153 12 209 85 397 28 73 66 199 85 280 19 82 45 170 58 196 29 58 99 125 149 143 47 17 47 25 0 33 -56 9 -153 59 -194 100 -22 22 -43 56 -53 89 -16 50 -15 59 3 169 21 127 34 158 80 202 42 40 114 47 154 16 47 -37 68 -92 74 -196 6 -89 5 -94 -21 -124 -14 -17 -26 -36 -26 -41 0 -15 80 -94 124 -123 42 -28 72 -32 97 -13 23 18 99 136 99 153 0 9 -11 30 -25 48 -45 59 -56 226 -19 298 30 59 91 65 139 14z m-205 -251 c5 -14 12 -25 16 -25 3 0 4 7 0 15 -3 8 -4 15 -2 15 6 0 78 -102 74 -103 -2 -1 -15 -12 -29 -25 -23 -20 -30 -21 -75 -13 -27 5 -75 11 -107 13 -31 1 -57 5 -57 8 1 3 16 27 34 53 57 83 127 113 146 62z m-604 -374 c-13 -21 -75 -90 -122 -136 -28 -27 -54 -58 -58 -69 -4 -10 -12 -16 -20 -13 -33 13 -182 -174 -276 -345 -23 -43 -43 -78 -46 -78 -7 0 38 97 83 178 66 117 160 231 250 304 43 35 103 87 133 115 54 52 66 61 56 44z m1278 -251 c-2 -113 -3 -117 -14 -100 -12 18 -12 2 0 -25 6 -14 9 -15 10 -5 1 10 4 9 10 -5 7 -16 9 -13 9 17 1 20 6 40 11 43 6 3 10 14 10 23 0 15 -2 15 -10 2 -5 -8 -10 -10 -10 -5 0 6 4 16 9 24 7 11 10 9 16 -8 3 -11 3 -26 -2 -33 -9 -15 -9 -19 -17 -91 -3 -29 -9 -65 -15 -79 -5 -13 -9 -31 -9 -39 3 -41 -3 -70 -12 -64 -5 3 -10 -3 -10 -14 0 -12 -4 -21 -8 -21 -5 0 -7 13 -4 30 2 16 8 27 13 24 12 -7 11 -1 -2 33 l-11 28 -14 -40 c-7 -22 -14 -60 -15 -85 0 -32 -3 -39 -8 -25 -8 19 -8 19 -19 0 -16 -28 -14 -5 8 90 12 54 19 70 20 50 l2 -30 7 30 c4 17 3 35 -2 42 -9 12 45 303 56 303 1 0 1 -31 1 -70z m-648 -1305 c27 -8 65 -15 85 -15 28 0 41 -6 53 -25 16 -24 16 -27 -2 -53 -10 -15 -22 -35 -25 -44 -6 -16 -26 -18 -221 -17 l-214 0 -25 37 c-20 31 -22 41 -13 55 14 18 69 34 161 47 33 5 71 13 85 19 35 14 60 13 116 -4z m-606 -90 c0 -2 -24 -17 -53 -33 -30 -17 -65 -44 -79 -61 l-26 -30 -41 19 c-49 24 -70 25 -100 4 -22 -16 -23 -16 -12 5 21 38 86 70 183 89 79 16 128 18 128 7z m1112 -5 c97 -21 159 -49 182 -82 20 -28 12 -37 -12 -15 -23 21 -58 22 -94 3 -24 -13 -28 -12 -54 15 -15 16 -54 41 -86 56 -58 26 -74 43 -40 43 9 0 56 -9 104 -20z m-54 -49 c43 -22 102 -83 102 -106 0 -21 -13 -19 -27 5 -7 10 -30 24 -52 31 -32 9 -47 9 -89 -5 -63 -21 -117 -13 -139 20 -20 32 -13 47 36 71 47 23 102 18 169 -16z m-933 3 c48 -31 20 -94 -42 -94 -19 0 -54 5 -78 11 -54 14 -89 6 -122 -27 -30 -30 -37 -27 -23 12 16 43 49 74 105 101 56 27 116 26 160 -3z"/>
<path d="M3390 3987 c-6 -28 -14 -76 -17 -104 -5 -45 -3 -53 10 -53 12 0 19 13 24 43 l6 42 17 -60 c11 -39 22 -61 33 -63 20 -4 21 4 6 64 -10 38 -9 47 5 63 9 9 16 34 16 54 0 38 -11 48 -62 61 -25 6 -27 3 -38 -47z"/>
<path d="M3611 3876 c-7 -46 -10 -90 -6 -95 8 -14 60 -14 85 -1 19 10 40 59 40 96 0 32 -39 73 -76 80 l-31 6 -12 -86z"/>
<path d="M3365 3718 c-16 -65 -33 -173 -29 -180 9 -14 32 -9 38 8 3 9 6 25 6 37 0 30 16 10 27 -33 7 -25 16 -36 31 -38 25 -4 26 -2 11 48 -10 32 -9 42 5 61 17 24 21 66 8 85 -24 37 -89 44 -97 12z"/>
<path d="M3507 3679 c-18 -82 -29 -171 -21 -179 5 -5 28 -12 52 -16 40 -6 42 -5 42 19 0 19 -6 26 -22 29 -32 5 -33 26 -1 30 37 4 43 35 9 48 -35 13 -33 30 4 30 31 0 51 23 34 40 -5 5 -28 12 -50 16 -38 6 -42 4 -47 -17z"/>
<path d="M3635 3658 c-13 -42 -26 -133 -21 -153 13 -52 76 -74 108 -37 26 28 51 182 31 182 -20 -1 -31 -20 -41 -75 -13 -64 -24 -81 -42 -70 -9 5 -10 30 -5 86 6 69 5 79 -9 79 -9 0 -18 -6 -21 -12z"/>
<path d="M3820 3623 c-48 -17 -54 -82 -10 -115 47 -34 39 -65 -8 -32 -24 16 -52 13 -52 -6 0 -6 12 -22 26 -35 36 -33 78 -33 100 0 21 32 12 68 -26 102 -20 18 -27 30 -20 37 6 6 16 4 28 -7 25 -23 32 -21 32 7 0 14 -10 32 -22 40 -24 17 -25 17 -48 9z"/>
<path d="M3934 3592 c-13 -9 -46 -184 -36 -193 11 -11 84 -29 94 -23 4 3 8 14 8 25 0 14 -9 21 -30 26 -39 7 -41 36 -2 31 21 -2 28 1 30 19 2 14 -3 23 -17 28 -12 3 -21 13 -21 21 0 12 7 14 30 9 27 -6 30 -4 30 18 0 18 -7 27 -24 31 -13 3 -30 8 -38 11 -7 3 -18 1 -24 -3z"/>
<path d="M3266 3385 c-10 -53 -16 -99 -13 -102 13 -13 37 8 37 32 0 39 17 21 25 -26 6 -37 27 -60 42 -46 3 3 0 29 -7 56 -10 44 -10 53 4 66 19 20 21 78 3 94 -8 6 -27 14 -43 17 l-30 6 -18 -97z"/>
<path d="M2440 3100 c-19 -19 -25 -42 -21 -82 2 -13 -2 -16 -15 -11 -35 13 -4 -14 37 -32 37 -17 44 -17 68 -4 21 12 27 23 29 59 5 75 -52 116 -98 70z"/>
<path d="M489 3639 c-6 -12 -9 -41 -6 -65 4 -39 2 -43 -16 -41 -16 2 -23 -8 -35 -51 -12 -42 -12 -56 -3 -65 10 -9 15 -8 25 6 20 26 34 23 173 -39 17 -8 35 -14 41 -14 32 0 35 -57 4 -97 l-17 -21 -95 29 c-146 44 -177 39 -208 -34 -27 -63 -5 -158 39 -172 43 -14 54 53 14 79 -28 18 -33 57 -11 75 10 8 30 10 58 6 l44 -7 -1 -80 c0 -77 1 -80 33 -109 36 -32 67 -37 99 -14 24 17 47 76 40 102 -3 10 -8 28 -12 41 -5 17 -2 22 13 22 20 0 32 33 32 85 0 13 4 25 8 27 11 4 62 130 62 152 0 25 -19 19 -32 -9 -13 -30 -21 -28 -121 22 -81 40 -96 66 -70 120 16 35 16 36 -6 54 -30 24 -38 24 -52 -2z"/>
</g>
</svg>
